HIERARCHY
ROOT Hips
{
 OFFSET 0.000000 0.000000 0.000000
 CHANNELS 6 Xposition Yposition Zposition Yrotation Xrotation Zrotation
 JOINT Chest
 {
  OFFSET 0.000000 13.173100 -0.061900
  CHANNELS 3 Yrotation Xrotation Zrotation
  JOINT Chest2
  {
   OFFSET 0.000000 8.040800 0.126200
   CHANNELS 3 Yrotation Xrotation Zrotation
   JOINT Chest3
   {
    OFFSET 0.000000 7.994400 0.000000
    CHANNELS 3 Yrotation Xrotation Zrotation
    JOINT Chest4
    {
     OFFSET 0.000000 7.986200 0.000000
     CHANNELS 3 Yrotation Xrotation Zrotation
     JOINT Neck
     {
      OFFSET 0.000000 12.259400 0.000000
      CHANNELS 3 Yrotation Xrotation Zrotation
      JOINT Head
      {
       OFFSET 0.000000 7.518700 0.267100
       CHANNELS 3 Yrotation Xrotation Zrotation
       End Site
       {
        OFFSET 0.000000 13.617700 0.141000
       }
      }
     }
     JOINT RightCollar
     {
      OFFSET -2.983800 8.314300 0.000000
      CHANNELS 3 Yrotation Xrotation Zrotation
      JOINT RightShoulder
      {
       OFFSET -16.133400 0.000000 0.000000
       CHANNELS 3 Yrotation Xrotation Zrotation
       JOINT RightElbow
       {
        OFFSET 0.000000 -29.822100 0.000000
        CHANNELS 3 Yrotation Xrotation Zrotation
        JOINT RightWrist
        {
         OFFSET 0.000000 -24.437700 0.010900
         CHANNELS 3 Yrotation Xrotation Zrotation
         End Site
         {
          OFFSET 0.000000 -18.312300 0.000000
         }
        }
       }
      }
     }
     JOINT LeftCollar
     {
      OFFSET 2.983800 8.314300 0.000000
      CHANNELS 3 Yrotation Xrotation Zrotation
      JOINT LeftShoulder
      {
       OFFSET 16.133400 0.000000 0.000000
       CHANNELS 3 Yrotation Xrotation Zrotation
       JOINT LeftElbow
       {
        OFFSET 0.000000 -29.822100 0.000000
        CHANNELS 3 Yrotation Xrotation Zrotation
        JOINT LeftWrist
        {
         OFFSET 0.000000 -24.437700 0.010900
         CHANNELS 3 Yrotation Xrotation Zrotation
         End Site
         {
          OFFSET 0.000000 -18.312300 0.000000
         }
        }
       }
      }
     }
    }
   }
  }
 }
 JOINT RightHip
 {
  OFFSET -11.206700 0.306200 0.030900
  CHANNELS 3 Yrotation Xrotation Zrotation
  JOINT RightKnee
  {
   OFFSET 0.000000 -57.334900 0.009400
   CHANNELS 3 Yrotation Xrotation Zrotation
   JOINT RightAnkle
   {
    OFFSET 0.000000 -43.376200 0.036600
    CHANNELS 3 Yrotation Xrotation Zrotation
    JOINT RightToe
    {
     OFFSET 0.000000 -10.035500 18.363100
     CHANNELS 3 Yrotation Xrotation Zrotation
     End Site
     {
      OFFSET 0.000000 -1.618500 7.239000
     }
    }
   }
  }
 }
 JOINT LeftHip
 {
  OFFSET 11.206700 0.306200 0.030900
  CHANNELS 3 Yrotation Xrotation Zrotation
  JOINT LeftKnee
  {
   OFFSET 0.000000 -57.334900 0.009400
   CHANNELS 3 Yrotation Xrotation Zrotation
   JOINT LeftAnkle
   {
    OFFSET 0.000000 -43.376200 0.036600
    CHANNELS 3 Yrotation Xrotation Zrotation
    JOINT LeftToe
    {
     OFFSET 0.000000 -10.035500 18.363100
     CHANNELS 3 Yrotation Xrotation Zrotation
     End Site
     {
      OFFSET 0.000000 -1.618500 7.239000
     }
    }
   }
  }
 }
}
MOTION
Frames: 5
Frame Time: 0.008333
-73.280900 70.940896 39.560738 -165.663145 -28.808612 -10.296725 1.030844 14.125904 7.525093 -0.502520 8.565639 1.524643 -0.578577 10.688803 1.907040 -0.496177 8.556605 1.528359 -2.169193 24.035801 0.385351 -2.436221 0.228998 0.912636 14.160664 0.127277 -6.106043 -20.242796 -49.762896 -1.607056 -154.745600 -47.314577 167.817559 -4.531040 -20.348041 2.514043 -12.029748 -1.634839 -6.033113 -15.493948 -26.309077 4.158231 -64.434511 -23.905432 51.351502 3.797584 -2.705485 2.295676 -28.213312 -28.831651 1.946102 70.618268 86.905977 69.005421 2.917749 -28.784276 -4.468146 -1.780448 2.753170 -0.996189 -14.590831 -47.730263 4.492159 169.474979 72.991429 168.921796 1.773490 -22.502306 -0.585633 -1.793885 -2.955634 -0.977596
-73.285063 70.942589 39.560699 -165.645632 -28.811905 -10.304379 1.020651 14.125863 7.527980 -0.503467 8.562584 1.525198 -0.562611 10.667742 1.912763 -0.493158 8.549009 1.530439 -2.197473 24.047115 0.379322 -2.458456 0.196811 0.911094 14.149167 0.130610 -6.103119 -20.264696 -49.751011 -1.568307 -154.987488 -47.299556 168.023471 -4.550945 -20.372463 2.386879 -12.065455 -1.614298 -6.028414 -15.495482 -26.302521 4.158896 -64.426322 -23.876307 51.322841 3.829695 -2.719189 2.318987 -28.229219 -28.825141 1.937077 70.629104 86.894444 69.024809 2.909806 -28.780276 -4.470335 -1.774974 2.753246 -0.994256 -14.594374 -47.730811 4.469629 169.421874 72.984736 168.877355 1.782678 -22.482919 -0.596530 -1.800883 -2.971773 -0.975256
-73.289941 70.944139 39.560555 -165.635363 -28.811633 -10.312057 1.017931 14.120524 7.535113 -0.470127 8.521901 1.538761 -0.575075 10.678037 1.908936 -0.487739 8.540958 1.532127 -2.232438 24.066608 0.378996 -2.471458 0.195392 0.912584 14.136660 0.142104 -6.100889 -20.293802 -49.727313 -1.536718 -155.085734 -47.277652 168.139444 -4.556710 -20.415534 2.255949 -12.099514 -1.594790 -6.027193 -15.530770 -26.314230 4.188636 -64.390582 -23.859042 51.272964 3.842639 -2.729622 2.326767 -28.239598 -28.820667 1.930929 70.568420 86.886274 68.970623 2.918113 -28.777548 -4.466184 -1.781463 2.756833 -0.999302 -14.602721 -47.734230 4.457693 169.381796 72.977351 168.840101 1.791846 -22.465311 -0.598528 -1.807781 -2.985399 -0.982960
-73.296598 70.945706 39.559852 -165.629402 -28.811295 -10.316084 1.026579 14.101605 7.545783 -0.474075 8.525165 1.536573 -0.571016 10.672936 1.909936 -0.460987 8.512134 1.534144 -2.253502 24.027361 0.382828 -2.504333 0.261691 0.920482 14.122495 0.162316 -6.097338 -20.299596 -49.700919 -1.535924 -155.013000 -47.239740 168.124566 -4.564965 -20.449150 2.167144 -12.136317 -1.572788 -6.022302 -15.549385 -26.342162 4.204003 -64.377643 -23.821331 51.211345 3.865102 -2.739713 2.337776 -28.241490 -28.818367 1.920949 70.523182 86.876991 68.932878 2.928063 -28.774559 -4.459986 -1.790654 2.760001 -1.004840 -14.609231 -47.739162 4.444405 169.337437 72.968827 168.795771 1.802659 -22.443687 -0.604435 -1.818430 -3.003319 -0.986442
-73.304578 70.947688 39.557792 -165.621653 -28.814391 -10.321011 1.037918 14.080076 7.558427 -0.480879 8.532875 1.533681 -0.534464 10.633691 1.917437 -0.464468 8.513914 1.535424 -2.287822 24.028629 0.386885 -2.558665 0.235188 0.939132 14.107533 0.190454 -6.093834 -20.302571 -49.674317 -1.560273 -154.768847 -47.188919 167.977805 -4.577949 -20.468196 2.150181 -12.135491 -1.576432 -6.029900 -15.586646 -26.324520 4.200493 -64.401022 -23.764150 51.172009 3.889023 -2.751061 2.346721 -28.242539 -28.810871 1.908187 70.455761 86.867903 68.873175 2.939344 -28.774887 -4.459616 -1.798887 2.765437 -1.004885 -14.615462 -47.740461 4.426040 169.282565 72.959213 168.744472 1.812108 -22.421046 -0.613063 -1.825974 -3.024844 -0.987858
